<?xml version="1.0" encoding="UTF-8"?>
<svg id="Camada_1" data-name="Camada 1" xmlns="http://www.w3.org/2000/svg" xmlns:xlink="http://www.w3.org/1999/xlink" viewBox="0 0 213.57 116.71">
  <defs>
    <style>
      .cls-1 {
        fill: url(#linear-gradient-2);
      }

      .cls-1, .cls-2, .cls-3 {
        fill-rule: evenodd;
      }

      .cls-4 {
        fill: url(#linear-gradient-3);
      }

      .cls-2 {
        fill: #0e70ba;
      }

      .cls-5 {
        fill: #06119a;
      }

      .cls-3 {
        fill: url(#linear-gradient);
      }
    </style>
    <linearGradient id="linear-gradient" x1="2.88" y1="79.62" x2="67.74" y2="79.62" gradientUnits="userSpaceOnUse">
      <stop offset="0" stop-color="#0e70ba"/>
      <stop offset="1" stop-color="#24b6f2"/>
    </linearGradient>
    <linearGradient id="linear-gradient-2" x1="2.38" y1="79.83" x2="53.25" y2="79.83" xlink:href="#linear-gradient"/>
    <linearGradient id="linear-gradient-3" x1="3.6" y1="79.81" x2="38.62" y2="79.81" xlink:href="#linear-gradient"/>
  </defs>
  <g>
    <path class="cls-2" d="M79.97,64.75c-4.74-14.43-16.59-26.98-33.75-31.16-7.19-1.75-12.42-1.55-19.91-1.55-3.27,0-12.78-.31-17.89.01-1.01,2.31-1.91,4.73-2.68,7.24,4.72,2.24,27.75-1.52,39.84,2.16,11.09,3.35,19.06,10.54,23.78,18.67,9.24,15.9,6.21,34.03-6.44,47.68-.7.73-4.52,3.37-3.67,5.11.18.36.57.68,1.23.96,1.4.55,4.06-1.21,5.69-2.44.01,0,.03-.02.04-.03.48-.36.86-.67,1.1-.86,7.19-5.76,11.67-13.15,13.7-21.07,2.07-8.06,1.62-16.68-1.04-24.72ZM78.47,39.25c-.76-2.32-2.03-4.47-3.7-6.41-7.92-9.38-24.61-14.38-35.81-15.22-3.37-.25-15.43-.49-21.43-.19-2.07,2.38-3.97,5.04-5.69,7.92,2.43.27,5.61-.16,7.21-.16,18.31,0,27.03-1,42.02,6.83,5.32,2.76,10.57,7.23,13.77,10.91.93,1.07,2.39,1.73,3.33,1.3.91-.41,1.32-1.87.3-4.98ZM64.99,11.85s-.1-.08-.15-.12c-6.1-4.84-13.16-7.6-20.68-7.6-6.63,0-12.9,2.14-18.47,5.96,2.26,1.27,8.8.33,14.04.73,4.36.31,8.24.98,12.26,1.96,3.7.91,7.65,2.42,10.77,3.81,1.46.66,2.63,1.03,3.54,1.19,3.66.64,2.68-2.47-1.31-5.93Z"/>
    <path class="cls-3" d="M67.74,79.65v.14c0,18.12-14.68,32.82-32.8,32.82h-11.37c-2.65-2.08-5.12-4.56-7.36-7.37h18.34c7.08,0,13.47-2.85,18.1-7.49,5.02-5.04,7.97-12.14,7.42-19.95-.96-13.6-12.69-23.92-26.32-23.92H4.97c-.8,0-1.52-.29-2.09-.77.24-2.12.56-4.2.96-6.23.39-.16.81-.25,1.25-.25h29.62c18.24,0,33.03,14.79,33.03,33.02Z"/>
    <path class="cls-1" d="M53.25,79.81c.02,5.12-2.06,9.75-5.39,13.1-3.36,3.34-7.97,5.41-13.06,5.41H11.5c-1.39-2.41-2.64-4.98-3.74-7.69h26.66c3.01,0,5.75-1.23,7.71-3.19,1.96-1.97,3.2-4.68,3.2-7.69,0-6.08-4.91-10.98-10.98-10.98H4.74c-.86,0-1.63-.37-2.16-.96-.13-1.78-.19-3.59-.2-5.42.51-.65,1.29-1.06,2.18-1.06h29.56c10.32,0,19.08,8.17,19.13,18.48Z"/>
    <path class="cls-4" d="M38.62,79.81c0,2.06-1.67,3.72-3.72,3.72H5.32c-.69-2.4-1.27-4.88-1.72-7.43.07-.01.15-.01.23-.01h31.07c2.05,0,3.72,1.67,3.72,3.72Z"/>
  </g>
  <g>
    <path class="cls-5" d="M204.5,14.76c-3.33,0-6.04,2.7-6.04,6.05s2.69,5.99,6,5.99,6.04-2.7,6.04-6.05-2.69-5.99-6.01-5.99ZM204.47,25.8c-2.79,0-4.97-2.19-4.97-5.02s2.2-5.02,5-5.02,4.97,2.19,4.97,4.99v.03c0,2.81-2.2,5.02-5,5.02Z"/>
    <path class="cls-5" d="M206.75,19.36c0,.4-.12.75-.36,1.04-.24.3-.57.5-.99.62.09.06.2.19.31.38l1.51,2.29h-1.35l-1.31-2.1c-.11-.18-.21-.3-.3-.36-.09-.06-.23-.1-.42-.1h-.46v2.56h-1.16v-6.18h2.33c.66,0,1.19.15,1.6.46.41.31.61.77.61,1.38ZM205.58,19.36c0-.51-.34-.77-1.03-.77h-1.17v1.57h1.17c.33,0,.58-.06.76-.17.18-.12.27-.32.27-.62Z"/>
  </g>
  <g>
    <path class="cls-5" d="M93.42,16.25h4.63v27.3h-4.63v-27.3Z"/>
    <path class="cls-5" d="M106.59,18.39v25.16h-4.63v-27.3h8.64c4.75,0,8.64,3.89,8.64,8.64v18.66h-4.63v-21.14c0-2.2-1.82-4.01-4.01-4.01h-4.01Z"/>
    <path class="cls-5" d="M140.42,16.25v2.14h-6.33v25.16h-4.63v-25.16h-6.33v-2.14h17.28Z"/>
    <path class="cls-5" d="M161.6,38.92v4.63h-8.64c-3.31,0-6.2-1.88-7.65-4.63-.63-1.2-1-2.57-1-4.01v-10.02c0-2.58,1.15-4.91,2.96-6.5,1.52-1.33,3.51-2.14,5.68-2.14h8.64v2.14h-8.64c-2.2,0-4.01,1.82-4.01,4.01v3.94h8.03v4.63h-8.03v3.94c0,2.2,1.82,4.01,4.01,4.01h8.64Z"/>
    <path class="cls-5" d="M165.49,16.25h4.63v25.24h12.66v2.06h-17.28v-27.3Z"/>
    <path class="cls-5" d="M186.66,16.25h4.63v27.3h-4.63v-27.3Z"/>
    <path class="cls-5" d="M110.7,60.01v10.02c0,4.75-3.89,8.64-8.64,8.64h-8.64v-27.3h8.64c4.75,0,8.64,3.89,8.64,8.64ZM98.05,74.04h4.01c2.2,0,4.01-1.82,4.01-4.01v-12.51c0-2.2-1.81-4.01-4.01-4.01h-4.01v20.53Z"/>
    <path class="cls-5" d="M119.23,68.46v10.21h-4.63v-18.66c0-4.75,3.89-8.64,8.64-8.64s8.64,3.89,8.64,8.64v18.66h-4.63v-10.21h-8.02ZM119.23,63.83h8.02l.03-6.31c0-2.2-1.81-4.01-4.01-4.01s-4.01,1.81-4.01,4.01l-.03,6.31Z"/>
    <path class="cls-5" d="M153.05,60.01v10.02c0,4.75-3.89,8.64-8.64,8.64h-8.64v-27.3h8.64c4.75,0,8.64,3.89,8.64,8.64ZM140.4,74.04h4.01c2.2,0,4.01-1.82,4.01-4.01v-12.51c0-2.2-1.81-4.01-4.01-4.01h-4.01v20.53Z"/>
    <path class="cls-5" d="M156.95,60.01c0-4.75,3.89-8.64,8.64-8.64s8.64,3.89,8.64,8.64v10.02c0,4.75-3.89,8.64-8.64,8.64s-8.64-3.89-8.64-8.64v-10.02ZM165.59,74.04c2.21,0,4.01-1.8,4.01-4.01v-12.53c0-2.2-1.8-4.01-4.01-4.01s-4.01,1.8-4.01,4.01v12.53c0,2.2,1.8,4.01,4.01,4.01Z"/>
    <path class="cls-5" d="M187.82,53.5h-2.11c-3.06,0-3.41,3.81-1.96,5.68,1.17,1.53,4.21.98,6.31,1.48,3.62.86,6.4,3.1,6.4,8.19v1.19c0,4.07-2.85,7.5-6.65,8.41-1.31.31-1.7.23-3.04.23-4.69,0-8.64-3.83-8.64-8.64v-.99h4.63v.99c0,2.2,1.82,4.01,4.01,4.01h1.05c2.2,0,4.01-1.82,4.01-4.01v-3.68c0-1.42-.75-2.67-1.88-3.39-2.77-1.76-6,1.04-9.39-2.66-2.58-2.82-1.72-7.7,3.15-8.73,1.29-.27,2.76-.2,4.1-.2,3.42,0,6.22,1.69,6.54,4.79h-3.78c-.15-1.42-1.01-2.67-2.76-2.67h0Z"/>
  </g>
  <g>
    <path class="cls-5" d="M95.97,97.34c-1.62,0-2.95-1.33-2.95-2.95v-2.16c0-1.62,1.33-2.95,2.95-2.95h4.77c.68,0,.68,1.04,0,1.04h-4.77c-1.05,0-1.91.86-1.91,1.91v2.16c0,1.05.86,1.91,1.91,1.91h4.77c.29,0,.52.23.52.52s-.23.52-.52.52h-4.77Z"/>
    <path class="cls-5" d="M105.58,97.34c-1.62,0-2.95-1.33-2.95-2.95v-2.16c0-1.62,1.33-2.95,2.95-2.95h3.13c1.62,0,2.95,1.33,2.95,2.95v2.16c0,1.62-1.33,2.95-2.95,2.95h-3.13ZM110.62,94.39v-2.16c0-1.05-.86-1.91-1.91-1.91h-3.13c-1.05,0-1.91.86-1.91,1.91v2.16c0,1.05.86,1.91,1.91,1.91h3.13c1.05,0,1.91-.86,1.91-1.91Z"/>
    <path class="cls-5" d="M115.29,90.71c-.36-.67-1.38-.42-1.38.34v5.77c0,.68-1.04.68-1.04,0v-5.77c0-1.84,2.47-2.45,3.33-.83l3.02,5.69c.36.67,1.38.42,1.38-.34v-5.77c0-.68,1.04-.68,1.04,0v5.77c0,1.84-2.47,2.45-3.33.83l-3.02-5.69Z"/>
    <path class="cls-5" d="M129.7,97.34h-5.8c-.68,0-.68-1.04,0-1.04h5.8c.97,0,1.25-1.37.28-1.72l-5.8-1.55c-.78-.24-1.33-1-1.33-1.83,0-1.06.86-1.92,1.92-1.92h5.8c.68,0,.68,1.04,0,1.04h-5.8c-1.02,0-1.2,1.43-.28,1.72l5.8,1.55c.78.24,1.33,1,1.33,1.83,0,1.06-.86,1.92-1.92,1.92Z"/>
    <path class="cls-5" d="M140.82,94.39v-4.59c0-.68,1.04-.68,1.04,0v4.59c0,1.62-1.33,2.95-2.95,2.95h-3.13c-1.62,0-2.95-1.33-2.95-2.95v-4.59c0-.68,1.04-.68,1.04,0v4.59c0,1.05.86,1.91,1.91,1.91h3.13c1.05,0,1.91-.86,1.91-1.91Z"/>
    <path class="cls-5" d="M146.02,97.34c-1.62,0-2.95-1.33-2.95-2.95v-4.59c0-.68,1.04-.68,1.04,0v4.59c0,1.05.86,1.91,1.91,1.91h4.07c.68,0,.68,1.04,0,1.04h-4.07Z"/>
    <path class="cls-5" d="M156.02,96.82v-6.51h-3.35c-.68,0-.68-1.04,0-1.04h7.73c.68,0,.68,1.04,0,1.04h-3.35v6.51c0,.67-1.04.67-1.04,0Z"/>
    <path class="cls-5" d="M165.24,97.34c-1.62,0-2.95-1.33-2.95-2.95v-2.16c0-1.62,1.33-2.95,2.95-2.95h3.13c1.62,0,2.95,1.33,2.95,2.95v2.16c0,1.62-1.33,2.95-2.95,2.95h-3.13ZM170.29,94.39v-2.16c0-1.05-.86-1.91-1.91-1.91h-3.13c-1.05,0-1.91.86-1.91,1.91v2.16c0,1.05.86,1.91,1.91,1.91h3.13c1.05,0,1.91-.86,1.91-1.91Z"/>
    <path class="cls-5" d="M173.58,96.82c0,.68-1.04.68-1.04,0v-6.15c0-.12.02-.25.05-.36.16-.6.71-1.04,1.35-1.04h4.3c1.35,0,2.46,1.07,2.53,2.4,0,.04,0,.09,0,.13,0,.98-.57,1.84-1.39,2.26l1.33,2.51c.32.6-.6,1.09-.92.49l-1.28-2.41c-.12-.22-.3-.3-.55-.31h-4.4v2.48ZM179.74,91.81s0-.09,0-.14c-.07-.75-.7-1.34-1.46-1.36h-4.34c-.38,0-.36.38-.36.59v2.41h4.67c.82,0,1.5-.68,1.5-1.5Z"/>
    <path class="cls-5" d="M182.25,96.82v-7.02c0-.29.23-.52.52-.52s.52.23.52.52v7.02c0,.68-1.04.68-1.04,0Z"/>
    <path class="cls-5" d="M194.36,97.07l-.79-1.48h-7.06l-.79,1.48c-.32.6-1.24.12-.92-.49l3.24-6.1c.85-1.6,3.13-1.6,3.98,0l3.24,6.1c.32.6-.6,1.09-.92.49ZM188.97,90.96l-1.9,3.58h5.96l-1.9-3.58c-.46-.87-1.69-.87-2.15,0Z"/>
  </g>
</svg>