<?xml version="1.0" encoding="UTF-8"?>
<svg id="Camada_1" data-name="Camada 1" xmlns="http://www.w3.org/2000/svg" xmlns:xlink="http://www.w3.org/1999/xlink" viewBox="0 0 84.48 116.71">
  <defs>
    <style>
      .cls-1 {
        fill: url(#linear-gradient-2);
      }

      .cls-1, .cls-2, .cls-3 {
        fill-rule: evenodd;
      }

      .cls-4 {
        fill: url(#linear-gradient-3);
      }

      .cls-2, .cls-5 {
        fill: #0e70ba;
      }

      .cls-3 {
        fill: url(#linear-gradient);
      }
    </style>
    <linearGradient id="linear-gradient" x1="2.14" y1="76.21" x2="62.01" y2="76.21" gradientUnits="userSpaceOnUse">
      <stop offset="0" stop-color="#0e70ba"/>
      <stop offset="1" stop-color="#24b6f2"/>
    </linearGradient>
    <linearGradient id="linear-gradient-2" x1="1.68" y1="76.4" x2="48.63" y2="76.4" xlink:href="#linear-gradient"/>
    <linearGradient id="linear-gradient-3" x1="2.81" y1="76.38" x2="35.13" y2="76.38" xlink:href="#linear-gradient"/>
  </defs>
  <g>
    <path class="cls-5" d="M76.82,99.47c-3.31,0-6,2.69-6,6.02s2.68,5.95,5.97,5.95,6-2.68,6-6.02-2.68-5.95-5.97-5.95ZM76.79,110.44c-2.77,0-4.94-2.18-4.94-4.99s2.18-4.99,4.97-4.99,4.94,2.18,4.94,4.96v.03c0,2.8-2.18,4.99-4.97,4.99Z"/>
    <path class="cls-5" d="M79.06,104.04c0,.4-.12.74-.36,1.04-.24.29-.57.5-.99.62.09.06.2.19.31.38l1.51,2.28h-1.34l-1.3-2.08c-.11-.18-.21-.3-.3-.36-.09-.06-.23-.1-.42-.1h-.46v2.54h-1.16v-6.14h2.31c.65,0,1.18.15,1.59.46.4.3.61.76.61,1.37ZM77.9,104.04c0-.51-.34-.77-1.03-.77h-1.17v1.56h1.17c.32,0,.58-.06.76-.17.18-.11.27-.32.27-.62Z"/>
  </g>
  <g>
    <path class="cls-2" d="M73.29,62.48c-4.37-13.32-15.31-24.9-31.15-28.76-6.64-1.62-11.46-1.43-18.38-1.43-3.02,0-11.79-.29-16.51,0-.93,2.13-1.76,4.37-2.47,6.68,4.36,2.07,25.61-1.4,36.77,1.99,10.24,3.09,17.59,9.73,21.95,17.23,8.53,14.67,5.73,31.41-5.94,44-.65.67-4.17,3.11-3.39,4.72.17.33.53.63,1.14.89,1.29.51,3.75-1.12,5.25-2.25,0,0,.03-.02.04-.03.44-.33.79-.62,1.02-.79,6.64-5.32,10.77-12.14,12.64-19.45,1.91-7.44,1.5-15.39-.96-22.81ZM71.91,38.95c-.7-2.14-1.87-4.13-3.41-5.92-7.31-8.66-22.71-13.27-33.05-14.05-3.11-.23-14.24-.45-19.78-.18-1.91,2.2-3.66,4.65-5.25,7.31,2.24.25,5.18-.15,6.65-.15,16.9,0,24.95-.92,38.78,6.3,4.91,2.55,9.76,6.67,12.71,10.07.86.99,2.21,1.6,3.07,1.2.84-.38,1.22-1.73.28-4.6ZM59.47,13.66s-.09-.07-.14-.11c-5.63-4.47-12.15-7.01-19.09-7.01-6.12,0-11.91,1.98-17.05,5.5,2.09,1.17,8.12.3,12.96.67,4.02.29,7.6.9,11.32,1.81,3.41.84,7.06,2.23,9.94,3.52,1.35.61,2.43.95,3.27,1.1,3.38.59,2.47-2.28-1.21-5.47Z"/>
    <path class="cls-3" d="M62.01,76.23v.13c0,16.72-13.55,30.29-30.27,30.29h-10.49c-2.45-1.92-4.73-4.21-6.79-6.8h16.93c6.53,0,12.43-2.63,16.7-6.91,4.63-4.65,7.36-11.2,6.85-18.41-.89-12.55-11.71-22.08-24.29-22.08H4.07c-.74,0-1.4-.27-1.93-.71.22-1.96.52-3.88.89-5.75.36-.15.75-.23,1.15-.23h27.34c16.83,0,30.48,13.65,30.48,30.47Z"/>
    <path class="cls-1" d="M48.63,76.38c.02,4.73-1.9,9-4.97,12.09-3.1,3.08-7.36,4.99-12.05,4.99H10.1c-1.28-2.22-2.44-4.6-3.45-7.1h24.61c2.78,0,5.31-1.14,7.12-2.94,1.81-1.82,2.95-4.32,2.95-7.1,0-5.61-4.53-10.13-10.13-10.13H3.86c-.79,0-1.5-.34-1.99-.89-.12-1.64-.18-3.31-.18-5,.47-.6,1.19-.98,2.01-.98h27.28c9.52,0,17.61,7.54,17.66,17.06Z"/>
    <path class="cls-4" d="M35.13,76.38c0,1.9-1.54,3.43-3.43,3.43H4.4c-.64-2.22-1.17-4.5-1.59-6.86.06,0,.14,0,.21,0h28.68c1.89,0,3.43,1.54,3.43,3.43Z"/>
  </g>
</svg>